<svg version="1.1" id="Layer_1" xmlns="http://www.w3.org/2000/svg" xmlns:xlink="http://www.w3.org/1999/xlink" x="0px" y="0px"
	 width="100%" viewBox="0 0 496 496" enable-background="new 0 0 496 496" xml:space="preserve">
<path fill="#000000" opacity="1.000000" stroke="none" 
	d="
M202.651031,162.668076 
	C216.479752,146.667099 230.080978,130.939758 244.349365,114.440979 
	C228.048141,113.541946 212.513290,115.199875 196.910339,116.382507 
	C198.994217,112.640388 202.496429,112.915924 205.522552,112.744652 
	C218.309738,112.020943 231.110535,111.500717 243.912399,111.098434 
	C247.133698,110.997215 249.569107,110.014687 251.847214,107.710136 
	C255.588577,103.925331 259.643829,100.450821 263.567017,96.845749 
	C264.776398,95.734428 265.945679,94.507187 268.575867,95.462059 
	C266.075287,101.817589 259.403595,104.421074 255.941422,110.634163 
	C265.927979,109.965149 275.606262,114.453453 284.814789,106.960037 
	C290.999359,101.927399 299.197815,100.165550 306.917847,98.051933 
	C308.488007,97.622055 310.222992,97.670403 311.878235,97.700821 
	C315.295105,97.763626 315.855469,99.572899 314.424957,102.325096 
	C313.251556,104.582672 311.459381,106.304916 309.458954,107.856819 
	C307.915741,109.054024 305.938477,109.773590 304.928131,111.761421 
	C307.082458,114.103691 310.882294,112.486290 313.083008,115.247032 
	C311.773773,117.929260 310.267487,118.696869 307.293610,117.143921 
	C303.138977,114.974411 298.870728,114.778954 294.472290,117.276566 
	C283.733185,123.374680 272.307648,128.087906 260.831207,132.532700 
	C252.766068,135.656311 247.958847,142.080490 241.762177,147.986084 
	C245.576050,148.074677 248.315643,144.814484 251.661682,146.499390 
	C252.228790,149.564346 249.034210,150.536667 248.661896,153.972031 
	C259.337585,149.941086 269.205566,145.161530 280.011932,143.115417 
	C278.776703,148.000183 274.495422,149.197708 271.134338,152.131531 
	C276.629028,151.187683 280.898132,147.651489 286.063263,147.348724 
	C286.273224,148.021515 286.520599,148.533157 286.438934,148.592606 
	C280.058136,153.236771 272.966858,156.482712 265.247314,157.852707 
	C260.825226,158.637482 261.865784,154.663986 261.806671,151.770035 
	C257.771393,153.662827 254.064728,155.530930 250.247986,157.137497 
	C248.321640,157.948334 246.188293,159.106720 244.102249,157.496201 
	C241.676758,155.623627 244.120911,153.546204 244.007645,151.396957 
	C240.595413,151.755493 238.602997,154.363831 236.082428,156.085159 
	C234.571884,157.116745 232.981110,159.537460 231.018387,157.331940 
	C229.371765,155.481598 231.435242,154.013351 232.595322,152.703079 
	C236.231567,148.596100 239.928833,144.543121 243.850876,140.193771 
	C240.343170,139.559128 237.765793,143.153137 233.435333,141.435272 
	C239.794403,136.229446 248.034912,136.042786 253.602524,130.968262 
	C259.234802,125.834808 265.062439,120.915680 270.851440,115.861656 
	C264.915009,112.312759 251.672363,113.610733 247.433624,118.230423 
	C226.039124,141.547623 204.830475,165.029694 185.840210,190.396713 
	C181.838684,195.741898 181.700180,196.400040 180.649796,202.084290 
	C177.801117,201.961487 177.492798,200.138275 178.017120,197.983734 
	C178.729141,195.057983 179.814880,192.211975 181.644058,189.815201 
	C188.513611,180.813919 195.488266,171.892838 202.651031,162.668076 
M309.858032,101.684303 
	C300.118134,101.351196 292.371552,106.403427 283.870605,110.831833 
	C295.164703,114.403015 303.434662,110.729027 309.858032,101.684303 
M275.298859,116.719910 
	C271.172058,119.954117 266.860077,122.976402 263.452484,127.132072 
	C272.485291,124.179092 281.356628,120.985146 289.347687,115.694168 
	C284.756714,115.399864 280.154175,112.778412 275.298859,116.719910 
z"/>
<path fill="#000000" opacity="1.000000" stroke="none" 
	d="
M237.074341,17.697674 
	C249.326584,16.247757 261.122467,16.593563 272.906799,17.693892 
	C278.689087,18.233795 284.449615,19.007122 290.219513,19.679056 
	C291.597778,19.839565 293.079315,20.078003 292.834900,21.921162 
	C292.639221,23.396692 291.322144,23.518827 290.103577,23.406591 
	C285.972412,23.026087 281.843994,22.615189 277.715179,22.209358 
	C233.990311,17.911575 192.947189,26.223106 154.907944,48.459103 
	C115.496284,71.497337 86.816559,104.079475 68.724625,145.958099 
	C63.099525,158.978897 58.941906,172.482605 56.355236,186.451187 
	C56.036518,188.172333 56.103580,190.784546 53.633526,190.396515 
	C50.771915,189.946960 52.313297,187.471558 52.618847,185.887619 
	C61.927475,137.632660 85.495361,97.671707 122.924049,65.940926 
	C151.378311,41.818356 184.260651,26.907034 220.831482,20.004923 
	C226.050354,19.019955 231.350021,18.463009 237.074341,17.697674 
z"/>
<path fill="#000000" opacity="1.000000" stroke="none" 
	d="
M437.190704,287.232178 
	C441.539734,275.817657 444.957428,264.534332 447.361664,252.937897 
	C447.690796,251.350388 446.826538,248.066193 450.171539,248.878967 
	C452.708160,249.495361 451.469727,252.056305 451.156921,253.611496 
	C447.295685,272.808594 441.159149,291.244232 432.019379,308.598480 
	C409.229156,351.871948 375.454987,383.606537 330.897552,403.618774 
	C309.673157,413.151428 287.325287,418.639069 264.016785,420.562714 
	C247.128357,421.956512 230.454742,421.294373 213.803711,418.549835 
	C212.316483,418.304688 209.845551,418.700378 210.075516,416.280792 
	C210.349350,413.399750 213.045517,414.506592 214.486160,414.761353 
	C224.341415,416.504211 234.331375,416.582642 244.258163,417.322998 
	C254.582993,418.093079 264.897400,416.810089 275.077972,415.375427 
	C306.713440,410.917267 335.748596,399.570984 362.192932,381.545227 
	C396.846497,357.923645 421.352386,326.283752 437.190704,287.232178 
z"/>
<path fill="#000000" opacity="1.000000" stroke="none" 
	d="
M94.607178,209.003387 
	C94.556267,218.033051 94.375664,226.678467 94.442238,235.321991 
	C94.469170,238.817719 92.680908,239.434387 89.750626,239.414078 
	C86.910561,239.394379 84.802818,238.978714 84.887482,235.436356 
	C84.986572,231.290176 84.910660,227.139801 83.972717,222.528320 
	C80.094315,227.901215 76.215912,233.274109 71.841034,239.334793 
	C67.637199,233.761169 63.997753,228.935837 60.358303,224.110504 
	C59.941250,224.181381 59.524197,224.252274 59.107143,224.323166 
	C59.107143,228.203812 59.115845,232.084488 59.104527,235.965103 
	C59.094551,239.386536 56.690910,239.393173 54.242748,239.369904 
	C51.992161,239.348511 49.735661,239.389877 49.735947,236.192902 
	C49.737156,222.757751 49.736462,209.322601 49.736462,195.887451 
	C50.220516,195.633057 50.704567,195.378647 51.188622,195.124252 
	C57.942974,204.484695 64.697327,213.845139 71.899635,223.826385 
	C79.248886,213.778198 86.078987,204.439835 93.385529,194.450043 
	C95.575539,199.598297 94.509918,204.164780 94.607178,209.003387 
z"/>
<path fill="#000000" opacity="1.000000" stroke="none" 
	d="
M318.256561,205.457275 
	C324.799896,195.832413 335.686249,193.594116 344.489960,196.733841 
	C353.950073,200.107651 360.080627,209.844833 359.257629,219.372055 
	C358.337311,230.025833 350.961945,238.256729 339.927826,239.908081 
	C331.406647,241.183365 324.048889,238.165054 318.929932,231.105270 
	C313.042999,222.986328 313.155701,214.393448 318.256561,205.457275 
M339.030762,205.203278 
	C338.202667,205.138565 337.370361,204.984360 336.547180,205.023254 
	C329.866577,205.338989 324.744690,210.487518 324.369965,217.221497 
	C324.033691,223.264496 329.477509,229.755661 335.584534,230.593689 
	C341.649261,231.425934 347.303070,227.041458 348.817291,220.331879 
	C350.343109,213.570908 346.996796,207.972137 339.030762,205.203278 
z"/>
<path fill="#000000" opacity="1.000000" stroke="none" 
	d="
M441.016602,218.339905 
	C443.898499,218.007507 442.642090,215.899811 442.686249,214.585602 
	C442.859467,209.427414 442.750397,204.260025 442.763824,199.096115 
	C442.772797,195.643784 445.247589,195.699982 447.657990,195.712189 
	C449.849030,195.723282 452.259155,195.505890 452.263733,198.758682 
	C452.282990,212.537796 452.271912,226.316956 452.271912,240.096115 
	C451.863586,240.363312 451.455231,240.630508 451.046906,240.897705 
	C441.884369,232.770752 432.721832,224.643799 423.559265,216.516830 
	C423.149567,216.707092 422.739868,216.897369 422.330170,217.087631 
	C422.330170,222.840286 422.204590,228.596710 422.376984,234.344193 
	C422.481201,237.818893 421.539917,239.520782 417.641663,239.463913 
	C414.024384,239.411148 412.614838,238.287781 412.666260,234.545502 
	C412.828705,222.719849 412.702759,210.890366 412.727844,199.062469 
	C412.730530,197.784897 412.480438,196.380112 414.243866,194.761871 
	C423.766083,201.670700 431.523499,210.804184 441.016602,218.339905 
z"/>
<path fill="#000000" opacity="1.000000" stroke="none" 
	d="
M155.727325,238.314850 
	C152.679672,240.189011 149.788864,239.463867 145.785950,238.822876 
	C152.284439,223.792465 158.599396,209.186539 164.914352,194.580627 
	C165.505417,194.543976 166.096497,194.507309 166.687576,194.470657 
	C173.050919,209.061752 179.414276,223.652847 185.820358,238.341919 
	C177.786301,240.647095 176.133713,240.147247 172.875793,234.232407 
	C170.351486,229.649429 166.122665,231.892593 162.590454,231.396454 
	C159.943634,231.024658 158.109665,232.178802 157.252304,234.800781 
	C156.891693,235.903595 156.380676,236.957245 155.727325,238.314850 
M163.419800,221.306915 
	C164.609573,223.169006 165.947617,222.871582 167.472031,221.715729 
	C167.316910,219.787933 167.008591,218.142319 165.276978,217.171875 
	C163.959000,218.149857 163.602844,219.377853 163.419800,221.306915 
z"/>
<path fill="#000000" opacity="1.000000" stroke="none" 
	d="
M234.425827,234.814087 
	C236.944153,227.580551 236.930923,227.612610 243.662643,230.390976 
	C245.025528,230.953461 246.527191,231.467926 247.970367,231.483109 
	C250.403625,231.508713 252.754471,230.700897 253.493469,228.088318 
	C254.242599,225.439880 252.200439,224.187332 250.215286,223.183228 
	C248.137527,222.132294 245.964874,221.269745 243.880753,220.230438 
	C237.762589,217.179428 234.989288,212.300247 236.096848,206.651306 
	C237.373306,200.140884 241.680420,196.303787 248.509705,195.676910 
	C252.554611,195.305603 256.463623,195.847748 260.208466,197.527374 
	C262.835266,198.705521 264.876770,199.761246 263.223511,203.428101 
	C261.684509,206.841614 260.025604,207.372101 256.705322,205.800049 
	C253.263245,204.170364 248.527893,202.370911 246.768890,207.116852 
	C245.129761,211.539368 250.249359,212.482605 253.241531,213.711288 
	C258.412903,215.834869 262.730499,218.390015 263.910370,224.460495 
	C264.975403,229.940216 262.369415,235.785858 257.374512,238.321198 
	C250.413147,241.854706 240.696686,240.509476 234.425827,234.814087 
z"/>
<path fill="#000000" opacity="1.000000" stroke="none" 
	d="
M261.522522,283.837280 
	C261.433075,282.609253 261.247742,281.788879 261.247955,280.968597 
	C261.248566,278.745605 260.161377,275.865936 262.782959,274.733185 
	C265.774078,273.440765 269.040253,273.556519 271.896454,275.630493 
	C270.746796,278.751587 267.780762,277.292664 266.226685,278.876892 
	C267.123016,281.132599 270.733063,278.994507 271.181580,281.985199 
	C270.292908,284.575012 267.047516,282.382172 265.788269,284.470184 
	C266.782471,287.437531 270.802063,284.782806 271.848694,288.073730 
	C269.041870,290.266174 265.715698,289.662659 262.732574,288.969696 
	C260.398071,288.427429 261.452057,285.974487 261.522522,283.837280 
z"/>
<path fill="#000000" opacity="1.000000" stroke="none" 
	d="
M317.287231,275.143890 
	C318.753906,274.691101 319.894775,274.171844 320.998566,274.241241 
	C322.704742,274.348511 325.216095,274.026215 325.354553,276.418427 
	C325.502960,278.982635 323.058868,278.090393 321.577057,278.214294 
	C319.574707,278.381836 317.931030,279.054260 317.576813,281.200317 
	C317.235809,283.266327 318.293335,284.619995 320.782684,285.533295 
	C320.548645,282.868683 321.336487,281.265228 324.188904,281.624359 
	C326.057922,281.859711 326.891266,282.721893 326.711060,284.527252 
	C326.496307,286.678040 326.401245,288.844330 323.505646,289.377289 
	C319.738953,290.070557 316.260895,289.597687 314.526093,285.948425 
	C312.673737,282.051819 313.124817,278.188324 317.287231,275.143890 
z"/>
<path fill="#000000" opacity="1.000000" stroke="none" 
	d="
M248.026764,288.579224 
	C246.849380,288.953674 246.046997,289.224121 245.230148,289.278809 
	C239.010834,289.695404 238.760513,289.454254 238.620438,283.252106 
	C238.612900,282.919464 238.534775,282.571930 238.604401,282.256683 
	C239.166565,279.710358 237.037811,275.988373 240.625641,274.841003 
	C243.934143,273.782898 247.764038,274.014618 250.158554,277.303986 
	C252.477509,280.489563 251.970886,283.876892 249.862091,287.049469 
	C249.508514,287.581421 248.890762,287.937805 248.026764,288.579224 
M247.647049,281.634735 
	C247.352646,279.546112 246.200806,278.183472 244.050644,278.466858 
	C242.028366,278.733398 242.375336,280.623322 242.358948,282.034149 
	C242.342575,283.442780 241.961746,285.311218 244.049194,285.555237 
	C246.223923,285.809479 247.327225,284.423279 247.647049,281.634735 
z"/>
<path fill="#000000" opacity="1.000000" stroke="none" 
	d="
M344.343567,280.342224 
	C347.618042,281.794708 346.355133,279.198730 346.636383,278.146484 
	C346.960480,276.933960 346.503113,275.133545 348.389923,275.133301 
	C350.582184,275.132996 350.260010,277.087616 350.291565,278.486969 
	C350.369293,281.931793 350.317017,285.379608 350.317017,289.120239 
	C345.737457,288.660034 344.671539,284.046936 341.089020,283.026031 
	C340.885254,283.270264 340.625946,283.484558 340.489990,283.759827 
	C339.639709,285.480957 341.385132,289.071503 338.181091,288.821442 
	C335.157196,288.585480 336.705139,285.334808 336.685883,283.439484 
	C336.657776,280.670197 336.177856,277.825195 337.210693,274.853149 
	C340.546265,275.374756 341.832550,278.429688 344.343567,280.342224 
z"/>
<path fill="#000000" opacity="1.000000" stroke="none" 
	d="
M204.653809,281.819763 
	C204.740067,273.958679 207.432358,272.444122 215.085800,275.501556 
	C214.118561,277.314056 214.118561,277.314056 209.308548,279.030426 
	C210.338745,280.987854 213.439865,279.213898 214.145142,281.760956 
	C213.591324,284.655334 209.917374,282.236115 209.038727,284.728027 
	C210.076889,287.338287 214.147797,284.792114 214.918045,287.981995 
	C207.715225,291.648987 204.567490,289.859711 204.653809,281.819763 
z"/>
<path fill="#000000" opacity="1.000000" stroke="none" 
	d="
M281.243866,287.822998 
	C282.043213,284.138733 285.076935,287.384247 286.850861,285.390259 
	C285.467590,282.200531 277.130096,280.930420 283.101379,275.229401 
	C285.076172,273.344025 288.580139,274.461426 290.248657,277.037659 
	C289.334167,279.113464 287.132874,277.242157 285.690063,278.637421 
	C287.596130,281.430389 293.879456,282.747955 289.794922,287.747650 
	C287.561127,290.481934 284.301544,290.297791 281.243866,287.822998 
z"/>
<path fill="#000000" opacity="1.000000" stroke="none" 
	d="
M190.034500,279.089630 
	C190.506363,281.350372 193.202515,280.038696 193.946915,282.321716 
	C192.341278,284.425018 188.279999,284.730591 188.195541,288.489685 
	C188.191574,288.666412 187.043289,289.043335 186.510483,288.931946 
	C185.599106,288.741516 185.292053,287.831238 185.271164,287.000946 
	C185.192474,283.875061 184.947266,280.725220 185.225540,277.625732 
	C185.567734,273.814209 189.921967,273.034149 195.050461,275.766327 
	C194.755707,278.966980 191.498520,277.381531 190.034500,279.089630 
z"/>
<path fill="#000000" opacity="1.000000" stroke="none" 
	d="
M152.373535,275.273346 
	C154.031433,274.632141 154.974701,274.964203 155.236435,276.476685 
	C155.236435,276.476685 161.771439,287.836395 161.937607,288.125244 
	C159.151215,290.278564 155.908279,289.812561 153.154114,288.822449 
	C150.698654,287.939728 151.814774,285.023102 151.739532,282.985748 
	C151.648209,280.512665 151.938889,278.025452 152.373535,275.273346 
z"/>
<path fill="#000000" opacity="1.000000" stroke="none" 
	d="
M174.142838,274.867249 
	C176.013702,279.845642 175.444321,284.440796 173.515274,288.952972 
	C171.105881,284.417023 171.498901,279.799622 172.085464,275.192535 
	C172.115173,274.959198 173.207718,274.861206 174.142838,274.867249 
z"/>
<path fill="#000000" opacity="1.000000" stroke="none" 
	d="
M301.271790,275.630615 
	C301.874084,275.215118 302.332520,274.989044 302.500854,275.124207 
	C305.379791,277.435883 305.031189,286.433807 301.508118,289.232666 
	C300.070312,284.682190 300.612671,280.328796 301.271790,275.630615 
z"/>
</svg>